<?xml version="1.0" standalone="no"?><!DOCTYPE svg PUBLIC "-//W3C//DTD SVG 1.1//EN" "http://www.w3.org/Graphics/SVG/1.1/DTD/svg11.dtd"><svg class="icon" width="200px" height="200.00px" viewBox="0 0 1024 1024" version="1.1" xmlns="http://www.w3.org/2000/svg"><path d="M754.996 634.88c-60.032 5.12-80 76.8-145.088 138.24-40 35.84-95.04 61.44-120 97.28-30.08 46.08-15.04 102.4-25.024 102.4-315.136 0-400.128-102.4-400.128-102.4S44.724 670.72 219.828 568.32L349.812 512s20.032-20.48 20.032-46.08v-20.48c-35.008-15.36-60.032-46.08-75.008-87.04-40 0-45.056-107.52-20.032-117.76C264.82 153.6 264.82 0 459.892 0h4.992c195.072 0 195.072 153.6 190.08 240.64 19.968 10.24 19.968 117.76-25.024 117.76-14.976 35.84-35.008 66.56-65.024 92.16v20.48c4.992 25.6 20.032 46.08 20.032 46.08l130.048 56.32c29.952 15.36 19.968 35.84 40 61.44z m-200.064-76.8l-4.992-5.12c-5.056-5.12-10.048-15.36-20.032-25.6a100.48 100.48 0 0 1-15.04-51.2v-56.32l20.032-15.36c20.032-15.36 35.008-35.84 50.048-66.56l9.984-30.72h20.032v-30.72l-15.04-10.24 4.992-35.84C614.964 107.52 589.94 51.2 464.884 51.2h-4.992c-120.064 0-150.08 56.32-140.032 184.32l4.992 35.84-15.04 5.12v30.72h20.032l9.984 30.72c9.984 30.72 30.08 51.2 50.048 66.56l19.968 15.36v56.32c0 20.48-9.984 35.84-14.976 51.2-4.992 10.24-15.04 20.48-20.032 25.6l-4.992 5.12-135.04 61.44c-40 25.6-75.008 61.44-95.04 97.28-14.976 30.72-24.96 61.44-30.016 92.16v40.96c9.984 5.12 30.08 15.36 55.04 25.6 60.032 25.6 145.024 40.96 255.104 46.08 0-15.36 4.992-25.6 9.984-46.08 4.992-15.36 9.984-25.6 20.032-35.84 14.976-20.48 35.008-40.96 64.96-61.44 5.056-5.12 20.032-15.36 25.024-20.48 15.04-10.24 25.024-20.48 35.008-25.6l25.024-25.6c9.984-10.24 44.992-56.32 50.048-66.56l29.952-30.72-124.992-51.2z m365.12 56.32c9.984 0 19.968 5.12 30.016 10.24 9.984 5.12 9.984 15.36 9.984 25.6 0 10.24-4.992 20.48-9.984 35.84-50.048 97.28-85.056 153.6-105.024 174.08-15.04 15.36-30.08 20.48-50.048 20.48-20.032 0-35.008-5.12-50.048-20.48-14.976-15.36-19.968-30.72-19.968-51.2 0-20.48 4.992-35.84 19.968-51.2l145.088-133.12c9.984-5.12 19.968-10.24 30.016-10.24zM780.02 798.72c-5.056 5.12-5.056 5.12-5.056 10.24s0 10.24 5.056 15.36c4.992 5.12 9.984 5.12 14.976 5.12 4.992 0 9.984 0 14.976-5.12 10.048-10.24 40.064-51.2 75.072-122.88L780.02 798.72z m-65.024 56.32c4.992 10.24 14.976 20.48 24.96 30.72 10.048 10.24 20.032 15.36 35.008 15.36v15.36c0 30.72-9.984 56.32-30.016 76.8-19.968 20.48-44.992 30.72-75.008 30.72-19.968 0-35.008-5.12-49.984-10.24-15.04-5.12-25.024-15.36-35.008-30.72-10.048-10.24-15.04-25.6-20.032-40.96-4.992-15.36-4.992-30.72-4.992-51.2 0 0 4.992 5.12 9.984 5.12 4.992 5.12 9.984 5.12 15.04 10.24 4.992 5.12 9.984 5.12 14.976 10.24 4.992 5.12 9.984 5.12 9.984 5.12 5.056 0 10.048-5.12 10.048-10.24 4.992-10.24 9.984-20.48 14.976-25.6l15.04-15.36c4.992-5.12 9.984-10.24 19.968-10.24 9.984-5.12 15.04-5.12 25.024-5.12h20.032z m-5.056 66.56h-49.984v51.2h49.984v-51.2z" fill="#1296DB" /></svg>