<?xml version="1.0" standalone="no"?><!DOCTYPE svg PUBLIC "-//W3C//DTD SVG 1.1//EN" "http://www.w3.org/Graphics/SVG/1.1/DTD/svg11.dtd"><svg class="icon" width="200px" height="200.00px" viewBox="0 0 1024 1024" version="1.1" xmlns="http://www.w3.org/2000/svg"><path d="M512.21504 24.25856c-12.1856 0-23.99744 4.87424-32.61952 13.49632s-13.49632 20.24448-13.49632 32.6144l-0.18944 62.60736a154.2656 154.2656 0 0 1 46.11584-7.49568c15.744 0.18944 31.11424 2.81088 46.11072 7.49568l-0.18432-62.60736c0-12.1856-4.86912-23.99232-13.50144-32.6144-8.2432-8.62208-20.04992-13.49632-32.23552-13.49632z m-234.12224 607.52384a106.50624 106.50624 0 0 0 26.42944 122.21952 23.296 23.296 0 0 0 19.68128 4.864 23.53664 23.53664 0 0 0 16.12288-12.3648l58.85952-114.90816h90.34752l-0.18944 22.87104a23.04 23.04 0 0 0 23.05536 23.05536 23.04 23.04 0 0 0 23.05536-23.05536l-0.18944-22.87104h90.34752l58.49088 114.90816c3.17952 6.36928 8.99584 10.86976 15.93344 12.1856a22.44096 22.44096 0 0 0 19.49184-5.06368 106.81344 106.81344 0 0 0 26.43456-122.03008l41.984-0.18432c6.18496 0 11.99616-2.24768 16.3072-6.55872s6.74816-10.12736 6.55872-16.31232a23.3216 23.3216 0 0 0-6.74816-16.31232 22.96832 22.96832 0 0 0-16.3072-6.74304l-65.98144-0.18432-97.1008-184.07424c-25.6768 24.92928-59.04384 40.67328-94.65856 44.42112l71.60832 140.02176-66.73408 0.18944v-23.05536c0-12.7488-10.3168-23.06048-23.06048-23.06048s-23.05536 10.31168-23.05536 23.06048v23.05536l-66.73408-0.18944 71.79264-139.83232A159.08864 159.08864 0 0 1 399.17056 401.408l-97.47456 184.25856-65.98144 0.18944a23.07072 23.07072 0 0 0-21.18144 11.0592 22.6816 22.6816 0 0 0 0 23.808c4.49536 7.30624 12.55936 11.6224 21.18144 11.05408h42.37824v0.00512zM855.06048 605.53728c-18.74432 149.39648-132.52608 268.98944-280.61696 295.6032a68.5824 68.5824 0 0 0-62.22848-39.73632 68.79744 68.79744 0 0 0-62.2336 39.73632c-148.27008-26.42432-261.86752-146.21184-280.61184-295.6032a23.21408 23.21408 0 0 0-13.68064-19.68128c-7.87456-3.56352-17.05984-2.24768-23.808 3.00032a23.04 23.04 0 0 0-8.2432 22.49728c21.36576 170.76736 151.82848 307.41504 321.47456 336.2816 7.68512 30.55616 35.24096 52.11136 66.72896 52.11136a68.74624 68.74624 0 0 0 66.73408-52.11136c170.01472-28.86656 300.672-165.51424 322.03264-336.2816a23.06048 23.06048 0 0 0-8.2432-22.49728 22.8608 22.8608 0 0 0-23.808-3.00032c-7.68512 3.37408-12.93312 11.0592-13.49632 19.68128zM397.12256 286.68416c0 46.4896 27.9296 88.47872 71.04 106.28608a114.97984 114.97984 0 0 0 125.40416-24.9344 114.9696 114.9696 0 0 0 24.92928-125.39904c-17.81248-42.92608-59.8016-71.04-106.28096-71.04-63.54432 0-115.09248 51.54816-115.09248 115.08736z m184.06912-0.18432c-0.36864 37.86752-31.29856 68.60288-69.16608 68.41856s-68.608-30.92992-68.79744-68.79232 30.55104-68.79744 68.41856-69.1712a68.84352 68.84352 0 0 1 49.30048 20.05504 68.9408 68.9408 0 0 1 20.24448 49.48992zM484.28544 314.05056a39.4752 39.4752 0 0 0 56.04352 0 39.48544 39.48544 0 0 0 0-56.04864 39.48544 39.48544 0 0 0-56.04352 0c-15.55456 15.37536-15.55456 40.49408 0 56.04864z" /></svg>